<svg width="60" height="60" viewBox="0 0 60 60" xmlns="http://www.w3.org/2000/svg">
  <rect width="60" height="60" rx="12" fill="url(#msGradient)"/>
  <defs>
    <linearGradient id="msGradient" x1="0%" y1="0%" x2="100%" y2="100%">
      <stop offset="0%" style="stop-color:#2D2D30;stop-opacity:1" />
      <stop offset="100%" style="stop-color:#1E1E1E;stop-opacity:1" />
    </linearGradient>
  </defs>
  <!-- White border around logo for better contrast -->
  <rect x="10" y="10" width="40" height="40" rx="4" fill="white" opacity="0.1"/>
  <!-- Microsoft logo windows with better contrast -->
  <rect x="15" y="15" width="12" height="12" fill="#F25022" rx="1"/>
  <rect x="33" y="15" width="12" height="12" fill="#7FBA00" rx="1"/>
  <rect x="15" y="33" width="12" height="12" fill="#00A4EF" rx="1"/>
  <rect x="33" y="33" width="12" height="12" fill="#FFB900" rx="1"/>
  <!-- Subtle inner glow for depth -->
  <rect x="15" y="15" width="12" height="12" fill="url(#redGlow)" rx="1" opacity="0.8"/>
  <rect x="33" y="15" width="12" height="12" fill="url(#greenGlow)" rx="1" opacity="0.8"/>
  <rect x="15" y="33" width="12" height="12" fill="url(#blueGlow)" rx="1" opacity="0.8"/>
  <rect x="33" y="33" width="12" height="12" fill="url(#yellowGlow)" rx="1" opacity="0.8"/>
  <defs>
    <radialGradient id="redGlow" cx="50%" cy="50%" r="50%">
      <stop offset="0%" style="stop-color:#FF6B47;stop-opacity:1" />
      <stop offset="100%" style="stop-color:#F25022;stop-opacity:1" />
    </radialGradient>
    <radialGradient id="greenGlow" cx="50%" cy="50%" r="50%">
      <stop offset="0%" style="stop-color:#9FD934;stop-opacity:1" />
      <stop offset="100%" style="stop-color:#7FBA00;stop-opacity:1" />
    </radialGradient>
    <radialGradient id="blueGlow" cx="50%" cy="50%" r="50%">
      <stop offset="0%" style="stop-color:#1BA1E2;stop-opacity:1" />
      <stop offset="100%" style="stop-color:#00A4EF;stop-opacity:1" />
    </radialGradient>
    <radialGradient id="yellowGlow" cx="50%" cy="50%" r="50%">
      <stop offset="0%" style="stop-color:#FFCB00;stop-opacity:1" />
      <stop offset="100%" style="stop-color:#FFB900;stop-opacity:1" />
    </radialGradient>
  </defs>
</svg>
